<svg width="65" height="64" viewBox="0 0 65 64" fill="none" xmlns="http://www.w3.org/2000/svg">
<path d="M6.16846 29.8972L58.7399 5.98865" stroke="black" stroke-width="4" stroke-linecap="round" stroke-linejoin="round"/>
<path d="M48.9114 2.28577L58.7399 5.98862L55.0828 15.8172" stroke="black" stroke-width="4" stroke-linecap="round" stroke-linejoin="round"/>
<path d="M61.0713 61.76H49.6427V29.76C49.6427 29.1538 49.8835 28.5724 50.3122 28.1438C50.7408 27.7151 51.3222 27.4743 51.9284 27.4743H58.7856C59.3918 27.4743 59.9732 27.7151 60.4018 28.1438C60.8305 28.5724 61.0713 29.1538 61.0713 29.76L61.0713 61.76Z" stroke="black" stroke-width="4" stroke-linecap="round" stroke-linejoin="round"/>
<path d="M38.2141 61.76H26.7855L26.7855 36.6172C26.7855 36.0109 27.0264 35.4296 27.455 35.0009C27.8837 34.5723 28.465 34.3314 29.0713 34.3314H35.9284C36.5346 34.3314 37.116 34.5723 37.5446 35.0009C37.9733 35.4296 38.2141 36.0109 38.2141 36.6172V61.76Z" stroke="black" stroke-width="4" stroke-linecap="round" stroke-linejoin="round"/>
<path d="M15.3569 61.76H3.92836L3.92836 43.4743C3.92836 42.8681 4.16918 42.2867 4.59783 41.8581C5.02649 41.4294 5.60787 41.1886 6.21408 41.1886H13.0712C13.6774 41.1886 14.2588 41.4294 14.6875 41.8581C15.1161 42.2867 15.3569 42.8681 15.3569 43.4743L15.3569 61.76Z" stroke="black" stroke-width="4" stroke-linecap="round" stroke-linejoin="round"/>
</svg>
