<svg width="65" height="64" viewBox="0 0 65 64" fill="none" xmlns="http://www.w3.org/2000/svg">
<g clip-path="url(#clip0_114_262)">
<path d="M22.1667 64C28.0547 64 32.8333 59.2213 32.8333 53.3333V42.6666H22.1667C16.2787 42.6666 11.5 47.4453 11.5 53.3333C11.5 59.2213 16.2787 64 22.1667 64Z" fill="#0ACF83"/>
<path d="M11.5 32C11.5 26.112 16.2787 21.3334 22.1667 21.3334H32.8333V42.6667H22.1667C16.2787 42.6667 11.5 37.888 11.5 32Z" fill="#A259FF"/>
<path d="M11.5 10.6667C11.5 4.77867 16.2787 0 22.1667 0H32.8333V21.3333H22.1667C16.2787 21.3333 11.5 16.5547 11.5 10.6667Z" fill="#F24E1E"/>
<path d="M32.8333 0H43.4999C49.3879 0 54.1666 4.77867 54.1666 10.6667C54.1666 16.5547 49.3879 21.3333 43.4999 21.3333H32.8333V0Z" fill="#FF7262"/>
<path d="M54.1666 32C54.1666 37.888 49.3879 42.6667 43.4999 42.6667C37.6119 42.6667 32.8333 37.888 32.8333 32C32.8333 26.112 37.6119 21.3334 43.4999 21.3334C49.3879 21.3334 54.1666 26.112 54.1666 32Z" fill="#1ABCFE"/>
</g>
<defs>
<clipPath id="clip0_114_262">
<rect width="42.6667" height="64" fill="white" transform="translate(11.5)"/>
</clipPath>
</defs>
</svg>
