<svg width="65" height="64" viewBox="0 0 65 64" fill="none" xmlns="http://www.w3.org/2000/svg">
<g clip-path="url(#clip0_114_258)">
<path d="M12.3906 11.2213C14.38 12.8373 15.1266 12.7146 18.8653 12.4639L54.1053 10.3493C54.852 10.3493 54.2306 9.60262 53.9826 9.47995L48.1266 5.24795C47.0066 4.37862 45.5106 3.38128 42.6466 3.62928L8.52662 6.11995C7.28396 6.24262 7.03329 6.86662 7.52929 7.36262L12.3906 11.2213ZM14.5053 19.4346V56.5119C14.5053 58.5039 15.5 59.2506 17.7426 59.1253L56.4706 56.8853C58.7133 56.7626 58.964 55.392 58.964 53.7733V16.944C58.964 15.3279 58.3426 14.4559 56.9693 14.5786L16.4973 16.944C15.004 17.0693 14.5053 17.816 14.5053 19.4319V19.4346ZM52.7373 21.4213C52.9853 22.5413 52.7373 23.6613 51.6173 23.7893L49.7506 24.1626V51.5333C48.1293 52.4053 46.636 52.904 45.3906 52.904C43.396 52.904 42.8973 52.2799 41.404 50.416L29.1986 31.2533V49.792L33.06 50.6666C33.06 50.6666 33.06 52.9066 29.9453 52.9066L21.3533 53.4026C21.1053 52.9066 21.3533 51.6613 22.2253 51.4133L24.4653 50.792V26.2773L21.3586 26.0266C21.108 24.9066 21.732 23.2906 23.4733 23.1653L32.6893 22.544L45.3933 41.9546V24.7813L42.1533 24.4106C41.9053 23.04 42.9 22.0453 44.1453 21.9226L52.7373 21.4213ZM5.66262 2.75995L41.156 0.146616C45.5133 -0.226718 46.636 0.0212822 49.3746 2.01328L60.7053 9.97595C62.572 11.3439 63.196 11.7173 63.196 13.2106V56.8853C63.196 59.6213 62.2013 61.2426 58.716 61.488L17.4946 63.9786C14.8813 64.104 13.6333 63.7306 12.2626 61.9866L3.91862 51.16C2.42529 49.1679 1.80396 47.6773 1.80396 45.9333V7.11195C1.80396 4.87462 2.80129 3.00528 5.66262 2.75995Z" fill="black"/>
</g>
<defs>
<clipPath id="clip0_114_258">
<rect width="64" height="64" fill="white" transform="translate(0.5)"/>
</clipPath>
</defs>
</svg>
