<svg width="65" height="64" viewBox="0 0 65 64" fill="none" xmlns="http://www.w3.org/2000/svg">
<g clip-path="url(#clip0_114_272)">
<path d="M23.3571 47.68C21.4439 49.3194 19.0192 50.2408 16.5 50.2857C14.655 50.4626 12.7937 50.2294 11.0494 49.6028C9.30511 48.9762 7.72095 47.9716 6.41036 46.661C5.09977 45.3504 4.09519 43.7663 3.46856 42.022C2.84193 40.2776 2.60874 38.4164 2.7857 36.5714C2.60874 34.7264 2.84193 32.8651 3.46856 31.1208C4.09519 29.3765 5.09977 27.7923 6.41036 26.4817C7.72095 25.1712 9.30511 24.1666 11.0494 23.5399C12.7937 22.9133 14.655 22.6801 16.5 22.8571C29.0714 22.8571 35.9286 50.2857 48.5 50.2857C50.345 50.4626 52.2063 50.2294 53.9506 49.6028C55.6949 48.9762 57.279 47.9716 58.5896 46.661C59.9002 45.3504 60.9048 43.7663 61.5314 42.022C62.1581 40.2776 62.3912 38.4164 62.2143 36.5714C62.3912 34.7264 62.1581 32.8651 61.5314 31.1208C60.9048 29.3765 59.9002 27.7923 58.5896 26.4817C57.279 25.1712 55.6949 24.1666 53.9506 23.5399C52.2063 22.9133 50.345 22.6801 48.5 22.8571H39.3571L48.5 13.7142" stroke="black" stroke-width="4" stroke-linecap="round" stroke-linejoin="round"/>
</g>
<defs>
<clipPath id="clip0_114_272">
<rect width="64" height="64" fill="white" transform="translate(0.5)"/>
</clipPath>
</defs>
</svg>
