<svg width="32" height="32" viewBox="0 0 32 32" fill="none" xmlns="http://www.w3.org/2000/svg">
<path d="M8.09145 3.90862C8.09765 4.70709 7.78946 5.47594 7.23346 6.04904C6.67746 6.62215 5.9183 6.95349 5.12002 6.97148C4.32339 6.94225 3.56843 6.6081 3.01116 6.03807C2.4539 5.46804 2.13692 4.70571 2.12573 3.90862C2.16036 3.13202 2.489 2.39764 3.04501 1.85436C3.60103 1.31108 4.34282 0.999542 5.12002 0.98291C5.89494 0.999853 6.63413 1.31216 7.18645 1.85598C7.73876 2.3998 8.06249 3.13406 8.09145 3.90862ZM2.44573 12.4115C2.44573 10.6515 3.56573 10.9258 5.12002 10.9258C6.6743 10.9258 7.77145 10.6515 7.77145 12.4115V29.5543C7.77145 31.3372 6.65145 30.9715 5.12002 30.9715C3.58859 30.9715 2.44573 31.3372 2.44573 29.5543V12.4115Z" stroke="black" stroke-width="1.71429" stroke-linecap="round" stroke-linejoin="round"/>
<path d="M12.3887 12.4114C12.3887 11.4286 12.7544 11.0628 13.3258 10.9486C13.8972 10.8343 15.863 10.9486 16.5487 10.9486C17.2344 10.9486 17.5087 12.0686 17.4858 12.9143C18.0724 12.1271 18.8511 11.5035 19.7476 11.1033C20.644 10.7031 21.6281 10.5397 22.6058 10.6286C23.5659 10.5699 24.5275 10.7138 25.4283 11.051C26.3291 11.3882 27.1489 11.9112 27.8344 12.5859C28.5199 13.2606 29.0558 14.072 29.4072 14.9674C29.7587 15.8627 29.9179 16.822 29.8744 17.7828V29.4857C29.8744 31.2686 28.7772 30.9028 27.223 30.9028C25.6687 30.9028 24.5715 31.2686 24.5715 29.4857V20.3428C24.6117 19.8723 24.5502 19.3986 24.3911 18.9539C24.232 18.5093 23.979 18.1041 23.6495 17.7658C23.3199 17.4276 22.9214 17.1642 22.481 16.9936C22.0406 16.823 21.5687 16.7492 21.0972 16.7771C20.628 16.7652 20.1616 16.8531 19.7288 17.035C19.2961 17.2169 18.9069 17.4886 18.5871 17.8322C18.2673 18.1758 18.0241 18.5834 17.8737 19.028C17.7232 19.4727 17.6689 19.9442 17.7144 20.4114V29.5543C17.7144 31.3371 16.5944 30.9714 15.0401 30.9714C13.4858 30.9714 12.3887 31.3371 12.3887 29.5543V12.4114Z" stroke="black" stroke-width="1.71429" stroke-linecap="round" stroke-linejoin="round"/>
</svg>
