<svg width="32" height="32" viewBox="0 0 32 32" fill="none" xmlns="http://www.w3.org/2000/svg">
<g clip-path="url(#clip0_15_225)">
<path d="M20.0229 29.7143C21.4305 30.6224 23.1078 31.0181 24.7729 30.835C26.438 30.6518 27.9892 29.9009 29.1657 28.7086L30.1943 27.7029C30.6453 27.2416 30.8977 26.6222 30.8977 25.9771C30.8977 25.3321 30.6453 24.7127 30.1943 24.2514L25.8286 19.9314C25.3712 19.4819 24.7556 19.2301 24.1143 19.2301C23.473 19.2301 22.8574 19.4819 22.4 19.9314V19.9314C21.9388 20.3824 21.3194 20.6349 20.6743 20.6349C20.0293 20.6349 19.4098 20.3824 18.9486 19.9314L12.0915 13.0743C11.8627 12.8489 11.6811 12.5802 11.5571 12.2839C11.4331 11.9877 11.3692 11.6697 11.3692 11.3486C11.3692 11.0274 11.4331 10.7095 11.5571 10.4132C11.6811 10.1169 11.8627 9.84829 12.0915 9.62286V9.62286C12.541 9.16548 12.7928 8.54986 12.7928 7.90857C12.7928 7.26729 12.541 6.65167 12.0915 6.19429L7.7486 1.85143C7.28736 1.4005 6.66793 1.14801 6.02289 1.14801C5.37784 1.14801 4.75841 1.4005 4.29717 1.85143L3.29146 2.88C2.09911 4.05656 1.34822 5.60778 1.16507 7.27284C0.98191 8.9379 1.37765 10.6153 2.28574 12.0229C7.01727 18.996 13.0376 25.0008 20.0229 29.7143V29.7143Z" stroke="#373CB2" stroke-width="1.71429" stroke-linecap="round" stroke-linejoin="round"/>
</g>
<defs>
<clipPath id="clip0_15_225">
<rect width="32" height="32" fill="white"/>
</clipPath>
</defs>
</svg>
